<svg width="20" height="50" viewBox="0 0 20 50" fill="none" xmlns="http://www.w3.org/2000/svg">
<path fill-rule="evenodd" clip-rule="evenodd" d="M10 0H0V20C0.637236 16.3504 2.30278 12.0415 4 11C5.69722 9.95852 8 9.5 8 9.5V9C8 9 6 8 6 5C6 2 7.49942 0 10 0ZM20 20V0H10C12.5006 0 14 2 14 5C14 8 12 9 12 9V9.5C12 9.5 14.3028 9.95852 16 11C17.6972 12.0415 19.3628 16.3504 20 20ZM20 31C20 31 20 32 18.5 32C17 32 17 31 17 31V22C16.4222 20.716 15 19 15 19V49C15 49 15 50 13.5 50C12 50 12 49 12 49L10 31L8 49C8 49 8 50 6.5 50C5 50 5 49 5 49V19C5 19 3.57782 20.716 3 22V31C3 31 3 32 1.5 32C0 32 0 31 0 31V50H6.5H13.5H20V31Z" fill="#E05858"/>
</svg>
