<svg width="40" height="100" viewBox="0 0 40 100" fill="none" xmlns="http://www.w3.org/2000/svg">
<path fill-rule="evenodd" clip-rule="evenodd" d="M20,0h-20v40c0,0,2.847,-14.721,6,-17c3.153,-2.279,9.5,-3,9.5,-3v-1c0,0,-4,-2,-4,-8c0,-6,2.5,-11,8.5,-11zm20,40c0,0,-2.847,-14.721,-6,-17c-3.153,-2.279,-9.5,-3,-9.5,-3v-1c0,0,4,-2,4,-8c0,-6,-2.5,-11,-8.5,-11h20v40zm0,22h-7.5v-18c-0.794,-1.662,-2.5,-4,-2.5,-4v60h10v-38zm-17,38l-3,-38l-3,38h6zm-13,0v-60c0,0,-1.706,2.338,-2.5,4v18l-3.75,3l-3.75,-3v38h10z" fill="#B65656"/>
</svg>
