<?xml version="1.0" encoding="UTF-8"?>
<svg fill="none" viewBox="0 0 40 100" xmlns="http://www.w3.org/2000/svg">
<rect width="40" height="100" fill="#D9D9D9"/>
<path d="m28.421 9.5238c0 3.4009-1.5762 6.3854-3.9474 8.0702v0.4132s8.5084 2.7854 9.0903 3.3175c0.0547 0.05 0.1073 0.0978 0.1581 0.144 0.4903 0.4461 0.8151 0.7417 1.231 1.3346 0.5654 0.8059 1.0821 2.3036 1.0821 2.3036l2.1106 7.5821s1.2922 3.5582 1.8542 5.921v-38.61h-40v38.61c0.56196-2.3628 1.8542-5.921 1.8542-5.921l2.1106-7.5821s0.51675-1.4977 1.0821-2.3036c0.41589-0.5929 0.74074-0.8885 1.231-1.3346 0.05081-0.0462 0.1034-0.094 0.15805-0.144 0.58198-0.5321 9.0904-3.3175 9.0904-3.3175v-0.4132c-2.3712-1.6848-3.9474-4.6693-3.9474-8.0702 0-5.2599 3.7703-9.5238 8.4211-9.5238s8.4211 4.264 8.4211 9.5238zm-28.421 49.86v40.616h40v-40.616s0 3.0812-3.8158 3.0812-3.8158-3.0812-3.8158-3.0812v-17.606l-1.0526-3.7348v59.996s0 1.9608-3.8038 1.9608-3.8038-1.9608-3.8038-1.9608l-3.4211-38.095h-0.5742l-3.4211 38.095s0 1.9608-3.8038 1.9608c-3.8038 0-3.8038-1.9608-3.8038-1.9608v-59.996l-1.0526 3.7348v17.606s0 3.0812-3.8158 3.0812-3.8158-3.0812-3.8158-3.0812z" clip-rule="evenodd" fill="#fff" fill-rule="evenodd"/>
</svg>