<svg width="40" height="100" viewBox="0 0 40 100" fill="none" xmlns="http://www.w3.org/2000/svg">
<path id="Shape" fill-rule="evenodd" clip-rule="evenodd" d="M28.4211 9.52381C28.4211 12.9247 26.8449 15.9092 24.4737 17.594V18.0072C24.4737 18.0072 32.9821 20.7926 33.564 21.3247C33.6187 21.3747 33.6713 21.4225 33.7221 21.4687C34.2124 21.9148 34.5372 22.2104 34.9531 22.8033C35.5185 23.6092 36.0352 25.1069 36.0352 25.1069L38.1458 32.689C38.1458 32.689 39.438 36.2472 40 38.61V0H20H0V38.61C0.561964 36.2472 1.85421 32.689 1.85421 32.689L3.96479 25.1069C3.96479 25.1069 4.48154 23.6092 5.04688 22.8033C5.46277 22.2104 5.78762 21.9148 6.2779 21.4687C6.32871 21.4225 6.3813 21.3747 6.43595 21.3247C7.01793 20.7926 15.5263 18.0072 15.5263 18.0072V17.594C13.1551 15.9092 11.5789 12.9247 11.5789 9.52381C11.5789 4.26395 15.3492 0 20 0C24.6508 0 28.4211 4.26395 28.4211 9.52381ZM0 59.3838V100H12.488H27.512H40V59.3838C40 59.3838 40 62.465 36.1842 62.465C32.3684 62.465 32.3684 59.3838 32.3684 59.3838V41.7778L31.3158 38.043V98.0392C31.3158 98.0392 31.3158 100 27.512 100C23.7082 100 23.7082 98.0392 23.7082 98.0392L20.2871 59.944H19.7129L16.2918 98.0392C16.2918 98.0392 16.2918 100 12.488 100C8.68421 100 8.68421 98.0392 8.68421 98.0392V38.043L7.63158 41.7778V59.3838C7.63158 59.3838 7.63158 62.465 3.81579 62.465C0 62.465 0 59.3838 0 59.3838Z" fill="white"/>
</svg>
